<svg width="185" height="48" viewBox="0 0 185 48" fill="none" xmlns="http://www.w3.org/2000/svg">
<path d="M37.6232 18.8669V16.0119H20.0572C17.36 16.0119 16 17.4051 16 19.6663V28.3456C16 30.6068 17.36 32 20.0572 32H37.6232V29.145H19.0599V18.8669H37.6232ZM49.3414 22.5442V16.0119H46.3496V32H49.3414V25.3535H65.3209V32H68.3128V16.0119H65.3209V22.5442H49.3414ZM97.3705 16.0119V29.145H81.6178V16.0119H78.6259V28.3456C78.6259 30.6068 79.9857 32 82.6831 32H96.3052C99.0026 32 100.362 30.6068 100.362 28.3456V16.0119H97.3705ZM129.079 32C132.026 32 133.386 30.7666 133.386 28.6425V26.7696C133.386 26.1757 133.182 25.9017 132.751 25.5362L130.847 23.8918L132.751 22.2472C133.182 21.8818 133.386 21.6077 133.386 21.0139V19.3694C133.386 17.2452 132.026 16.0119 129.079 16.0119H110.674V32H129.079ZM113.666 18.7299H130.326V22.6127H113.666V18.7299ZM130.326 29.282H113.666V25.285H130.326V29.282ZM161.265 32C164.211 32 165.571 30.7666 165.571 28.6425V26.7696C165.571 26.1757 165.367 25.9017 164.936 25.5362L163.032 23.8918L164.936 22.2472C165.367 21.8818 165.571 21.6077 165.571 21.0139V19.3694C165.571 17.2452 164.211 16.0119 161.265 16.0119H142.86V32H161.265ZM145.852 18.7299H162.511V22.6127H145.852V18.7299ZM162.511 29.282H145.852V25.285H162.511V29.282Z" fill="white"/>
<path d="M171.044 18.0476C171.135 18.0417 171.215 18.0252 171.285 17.9977C171.355 17.9704 171.411 17.9265 171.453 17.8659C171.496 17.8054 171.517 17.7223 171.517 17.617C171.517 17.5272 171.501 17.4549 171.468 17.4001C171.435 17.3456 171.391 17.3017 171.334 17.2683C171.278 17.2352 171.215 17.2126 171.145 17.2009C171.076 17.1892 171.002 17.1835 170.924 17.1835H170.36V18.0564H170.768C170.86 18.0564 170.953 18.0534 171.044 18.0476ZM170.052 19.439V16.9198H171.012C171.294 16.9198 171.501 16.9794 171.631 17.0985C171.761 17.2177 171.826 17.3905 171.826 17.617C171.826 17.7263 171.809 17.822 171.776 17.9041C171.743 17.986 171.698 18.0554 171.64 18.1121C171.581 18.1687 171.514 18.2136 171.439 18.2467C171.363 18.28 171.283 18.3044 171.197 18.3199L171.942 19.439H171.581L170.878 18.3199H170.36V19.439H170.052ZM170.107 16.4569C169.885 16.5546 169.692 16.6874 169.529 16.8554C169.366 17.0232 169.239 17.2206 169.148 17.447C169.057 17.6736 169.012 17.9178 169.012 18.1794C169.012 18.4412 169.057 18.6852 169.148 18.9117C169.239 19.1383 169.366 19.3356 169.529 19.5035C169.692 19.6715 169.885 19.8042 170.107 19.9019C170.33 19.9996 170.574 20.0484 170.837 20.0484C171.097 20.0484 171.338 19.9996 171.561 19.9019C171.784 19.8042 171.977 19.6715 172.139 19.5035C172.302 19.3356 172.43 19.1383 172.523 18.9117C172.616 18.6852 172.663 18.4412 172.663 18.1794C172.663 17.9178 172.616 17.6736 172.523 17.447C172.43 17.2206 172.302 17.0232 172.139 16.8554C171.977 16.6874 171.784 16.5546 171.561 16.4569C171.338 16.3593 171.097 16.3105 170.837 16.3105C170.574 16.3105 170.33 16.3593 170.107 16.4569ZM171.692 16.167C171.955 16.2783 172.184 16.4326 172.378 16.6298C172.572 16.8271 172.724 17.0585 172.835 17.324C172.945 17.5897 173 17.8747 173 18.1794C173 18.488 172.945 18.7741 172.835 19.0376C172.724 19.3013 172.572 19.5308 172.378 19.7261C172.184 19.9215 171.955 20.0747 171.692 20.1859C171.428 20.2973 171.143 20.3528 170.837 20.3528C170.531 20.3528 170.246 20.2973 169.983 20.1859C169.719 20.0747 169.49 19.9215 169.297 19.7261C169.103 19.5308 168.951 19.3013 168.84 19.0376C168.73 18.7741 168.674 18.488 168.674 18.1794C168.674 17.8747 168.73 17.5897 168.84 17.324C168.951 17.0585 169.103 16.8271 169.297 16.6298C169.49 16.4326 169.719 16.2783 169.983 16.167C170.246 16.0557 170.531 16 170.837 16C171.143 16 171.428 16.0557 171.692 16.167Z" fill="white"/>
</svg>
