<?xml version="1.0" encoding="UTF-8"?>
<svg id="Theming" xmlns="http://www.w3.org/2000/svg" viewBox="0 0 24 24">
  <defs>
    <style>
      .cls-1 {
        fill: #222;
      }
    </style>
  </defs>
  <path class="cls-1" d="m17.5,16.43c-.3,0-.6-.2-.7-.5l-1.5-4.78-3.8-1.59c-.3-.1-.5-.3-.5-.6s.2-.5.4-.6l3.8-1.59,1.5-4.78c.1-.3.4-.5.7-.5s.6.2.7.5l1.5,4.78,3.8,1.59c.4.1.6.3.6.6s-.2.5-.4.6l-3.8,1.59-1.5,4.78c-.2.3-.5.5-.8.5Zm-4-7.47l2.6,1.1c.2.1.3.2.4.4l1,2.99,1-2.99c.1-.2.2-.3.4-.4l2.6-1.1-2.6-1.1c-.2-.1-.3-.2-.4-.4l-1-2.99-1,2.99c-.1.2-.2.3-.4.4l-2.6,1.1Z"/>
  <path class="cls-1" d="m5.89,9.16c-.3,0-.6-.2-.7-.5l-.8-2.59-2.1-.8c-.3-.1-.4-.4-.4-.7s.1-.5.4-.6l2.1-.9.8-2.59c.1-.3.4-.5.7-.5s.6.2.7.5l.8,2.59,2.1.9c.2.1.4.3.4.6s-.2.6-.5.7l-2,.8-.9,2.59c-.1.3-.3.5-.6.5Zm-1.5-4.58l.8.4c.2.1.3.2.4.4l.3.8.3-.8c.1-.2.2-.3.4-.4l.8-.4-.9-.3c-.2-.1-.3-.3-.4-.5l-.2-.8-.3.8c-.1.2-.2.4-.4.5l-.8.3Z"/>
  <path class="cls-1" d="m5.49,24H.98c-.4,0-.7-.3-.7-.7v-8.36c0-.1,0-.3.1-.4l1.4-2.09c.1-.2.6-1.29,1-2.39,0-.1.9-1.86,1.9-3.16l.9,1.07c-.9,1.19-1.5,2.59-1.5,2.59-.9,2.29-1,2.49-1.1,2.59l-1.3,1.89v7.47h3.1v-1.39h1.4v2.09c0,.5-.3.8-.7.8Z"/>
  <path class="cls-1" d="m16.07,6.97c-.88-.1-2.43-.2-4.86-.2-1.66,0-3.09.1-4.19.2l-.22-1.39c1.21-.1,2.65-.2,4.42-.2,2.1,0,3.75.1,5.08.3l-.22,1.29Z"/>
  <path class="cls-1" d="m22.4,24h-4.5c-.4,0-.7-.3-.7-.7v-.7H7.69v-1.39h10.11c.4,0,.7.3.7.7v.7h3.1v-7.47l-1.3-1.89c-.1-.1-.27-.56-.87-2.05l1.3-.5c.5,1.25.74,1.8.77,1.85l1.4,1.99c.1.1.1.3.1.4v8.36c-.01.46-.3.7-.6.7Z"/>
  <path class="cls-1" d="m5.89,15.84h-2.4v1.39h2.4v-1.39Z"/>
  <path class="cls-1" d="m4.79,12.95l-.2-1.39c1.8-.2,4.1-.4,6.6-.4,1.7,0,3.4.1,4.9.2l-.1,1.39c-1.4-.1-3.1-.2-4.8-.2-2.4.1-4.7.2-6.4.4Z"/>
  <path class="cls-1" d="m.71,9.76l-.71,1.2,1.98,1.16.71-1.2-1.98-1.16Z"/>
</svg>